<svg width="26" height="35" viewBox="0 0 26 35" fill="none" xmlns="http://www.w3.org/2000/svg">
<path d="M6.66925 9.77935V7.08886C6.66925 3.24685 9.49241 0.112427 12.9992 0.112427C16.506 0.112427 19.3292 3.24685 19.3292 7.08886V9.77935H23.7044C23.9049 9.77951 24.0978 9.86036 24.2444 10.0056C24.391 10.1509 24.4803 10.3498 24.4944 10.5623L25.9984 34.1041C26.0116 34.3265 25.9416 34.5454 25.8036 34.7132C25.6656 34.881 25.4708 34.9841 25.2616 35H0.789979C0.580463 35 0.379529 34.9116 0.231379 34.7541C0.0832295 34.5967 0 34.3832 0 34.1606V34.1041L1.504 10.5623C1.51747 10.3493 1.60654 10.1498 1.75319 10.0039C1.89983 9.85809 2.09312 9.77686 2.29398 9.77666L6.66925 9.77935ZM9.04425 9.77935H16.9567V7.08886C16.9567 4.6163 15.1843 2.63341 12.9992 2.63341C10.8141 2.63341 9.04425 4.6163 9.04425 7.08886V9.77935ZM2.48388 32.4817H23.5145L22.2283 12.303H3.77266L2.48388 32.4817Z" fill="black"/>
</svg>
