<svg width="24" height="24" viewBox="0 0 24 24" fill="none" xmlns="http://www.w3.org/2000/svg">
<g clip-path="url(#clip0_15_41)">
<path fill-rule="evenodd" clip-rule="evenodd" d="M15.6001 10C15.6001 12.016 14.0161 13.6 12.0001 13.6C9.9841 13.6 8.4001 12.016 8.4001 10C8.4001 9.5032 7.9969 9.1 7.5001 9.1C7.0033 9.1 6.6001 9.5032 6.6001 10C6.6001 13.024 8.9761 15.4 12.0001 15.4C15.0241 15.4 17.4001 13.024 17.4001 10C17.4001 9.5032 16.9969 9.1 16.5001 9.1C16.0033 9.1 15.6001 9.5032 15.6001 10Z" fill="white"/>
<path fill-rule="evenodd" clip-rule="evenodd" d="M3.9001 6.90033V20.0008C3.9001 20.2923 4.0162 20.5723 4.2223 20.7785C4.4284 20.9848 4.70828 21.1012 4.99988 21.1012C6.95108 21.1012 12.0001 21.1012 12.0001 21.1012C12.4969 21.1012 12.9001 21.5039 12.9001 22.0008C12.9001 22.4977 12.4969 22.9003 12.0001 22.9003C12.0001 22.9003 6.95108 22.9003 4.99988 22.9003C4.23128 22.9012 3.4933 22.5954 2.9497 22.0514C2.4052 21.5074 2.1001 20.7697 2.1001 20.0008V6.00075C2.1001 5.50386 2.5033 5.10117 3.0001 5.10117H21.0001C21.4969 5.10117 21.9001 5.50386 21.9001 6.00075V12.5003C21.9001 12.9972 21.4969 13.4008 21.0001 13.4008C20.5033 13.4008 20.1001 12.9972 20.1001 12.5012V6.90033H3.9001Z" fill="white"/>
<path fill-rule="evenodd" clip-rule="evenodd" d="M21.8051 5.59774C21.8051 5.59774 20.9502 3.88705 20.3582 2.70305C19.8672 1.72039 18.8622 1.10044 17.7642 1.10044C15.1102 1.10044 8.89014 1.10044 6.23614 1.10044C5.13814 1.10044 4.13315 1.72039 3.64215 2.70305C3.05015 3.88705 2.19516 5.59774 2.19516 5.59774C1.97316 6.04174 2.15314 6.58308 2.59814 6.80575C3.04214 7.02708 3.58314 6.84708 3.80514 6.40308C3.80514 6.40308 4.66016 4.69239 5.25216 3.50839C5.43916 3.13639 5.81914 2.9004 6.23614 2.9004C8.89014 2.9004 15.1102 2.9004 17.7642 2.9004C18.1812 2.9004 18.5611 3.13639 18.7481 3.50839C19.3401 4.69239 20.1952 6.40308 20.1952 6.40308C20.4172 6.84708 20.9582 7.02708 21.4022 6.80575C21.8472 6.58308 22.0271 6.04174 21.8051 5.59774Z" fill="white"/>
<path fill-rule="evenodd" clip-rule="evenodd" d="M16.0001 19.9H22.0001C22.4971 19.9 22.9001 19.5 22.9001 19C22.9001 18.5 22.4971 18.1 22.0001 18.1H16.0001C15.5031 18.1 15.1001 18.5 15.1001 19C15.1001 19.5 15.5031 19.9 16.0001 19.9Z" fill="white"/>
<path fill-rule="evenodd" clip-rule="evenodd" d="M20.7269 19L18.3639 16.6401C18.0119 16.2901 18.0119 15.72 18.3639 15.36C18.7149 15.01 19.2849 15.01 19.6359 15.36L22.6359 18.36C22.9879 18.72 22.9879 19.2901 22.6359 19.6401L19.6359 22.6401C19.2849 22.9901 18.7149 22.9901 18.3639 22.6401C18.0119 22.2901 18.0119 21.72 18.3639 21.36L20.7269 19Z" fill="white"/>
</g>
<defs>
<clipPath id="clip0_15_41">
<rect width="24" height="24" fill="white"/>
</clipPath>
</defs>
</svg>
