<svg width="28" height="28" viewBox="0 0 28 28" fill="none" xmlns="http://www.w3.org/2000/svg">
<path d="M21.1752 10.6689L20.8252 21.2625C20.7954 22.1698 20.4132 23.0297 19.7597 23.6598C19.1063 24.2899 18.233 24.6406 17.3252 24.6374H10.6752C9.76803 24.6406 8.89524 24.2905 8.24187 23.6611C7.5885 23.0317 7.20591 22.1727 7.17521 21.266L6.82521 10.6689C6.81755 10.4368 6.90239 10.2112 7.06107 10.0417C7.21975 9.87219 7.43927 9.77266 7.67133 9.765C7.9034 9.75734 8.129 9.84218 8.29851 10.0009C8.46802 10.1595 8.56755 10.3791 8.57521 10.6111L8.92521 21.2074C8.94263 21.6597 9.13468 22.0877 9.46099 22.4015C9.78731 22.7152 10.2225 22.8903 10.6752 22.89H17.3252C17.7785 22.8903 18.2142 22.7147 18.5406 22.4002C18.867 22.0857 19.0587 21.6568 19.0752 21.2039L19.4252 10.6111C19.4329 10.3791 19.5324 10.1595 19.7019 10.0009C19.8714 9.84218 20.097 9.75734 20.3291 9.765C20.5611 9.77266 20.7807 9.87219 20.9393 10.0417C21.098 10.2112 21.1829 10.4368 21.1752 10.6689ZM22.3328 7.1435C22.3328 7.37556 22.2406 7.59812 22.0765 7.76222C21.9125 7.92631 21.6899 8.0185 21.4578 8.0185H6.54346C6.31139 8.0185 6.08883 7.92631 5.92474 7.76222C5.76064 7.59812 5.66846 7.37556 5.66846 7.1435C5.66846 6.91143 5.76064 6.68887 5.92474 6.52478C6.08883 6.36068 6.31139 6.2685 6.54346 6.2685H9.25596C9.5332 6.26924 9.8008 6.16681 10.0067 5.98114C10.2126 5.79547 10.342 5.53984 10.3698 5.264C10.4344 4.61692 10.7376 4.01706 11.2202 3.58129C11.7029 3.14552 12.3305 2.90506 12.9808 2.90675H15.0196C15.6699 2.90506 16.2975 3.14552 16.7802 3.58129C17.2629 4.01706 17.566 4.61692 17.6306 5.264C17.6584 5.53984 17.7878 5.79547 17.9937 5.98114C18.1996 6.16681 18.4672 6.26924 18.7445 6.2685H21.457C21.689 6.2685 21.9116 6.36068 22.0757 6.52478C22.2398 6.68887 22.332 6.91143 22.332 7.1435H22.3328ZM11.8888 6.2685H16.1133C15.9984 6.00577 15.9231 5.72738 15.8902 5.4425C15.8685 5.22682 15.7676 5.02686 15.6069 4.88137C15.4462 4.73588 15.2372 4.65521 15.0205 4.655H12.9817C12.7649 4.65521 12.556 4.73588 12.3953 4.88137C12.2346 5.02686 12.1336 5.22682 12.112 5.4425C12.0787 5.72743 12.0041 6.00582 11.8888 6.2685ZM12.77 19.5256V12.075C12.77 11.8429 12.6778 11.6204 12.5137 11.4563C12.3496 11.2922 12.127 11.2 11.895 11.2C11.6629 11.2 11.4403 11.2922 11.2762 11.4563C11.1121 11.6204 11.02 11.8429 11.02 12.075V19.5291C11.02 19.7612 11.1121 19.9837 11.2762 20.1478C11.4403 20.3119 11.6629 20.4041 11.895 20.4041C12.127 20.4041 12.3496 20.3119 12.5137 20.1478C12.6778 19.9837 12.77 19.7612 12.77 19.5291V19.5256ZM16.9822 19.5256V12.075C16.9822 11.8429 16.89 11.6204 16.7259 11.4563C16.5618 11.2922 16.3393 11.2 16.1072 11.2C15.8751 11.2 15.6526 11.2922 15.4885 11.4563C15.3244 11.6204 15.2322 11.8429 15.2322 12.075V19.5291C15.2322 19.7612 15.3244 19.9837 15.4885 20.1478C15.6526 20.3119 15.8751 20.4041 16.1072 20.4041C16.3393 20.4041 16.5618 20.3119 16.7259 20.1478C16.89 19.9837 16.9822 19.7612 16.9822 19.5291V19.5256Z" fill="black"/>
</svg>
