<svg width="51" height="40" viewBox="0 0 51 40" fill="none" xmlns="http://www.w3.org/2000/svg">
<path d="M50.1891 5.1123C48.3394 5.88589 46.3833 6.39729 44.3817 6.63057C46.4934 5.41434 48.076 3.50098 48.8357 1.24543C46.8512 2.38429 44.6789 3.18668 42.4131 3.61774C40.8986 2.03439 38.8819 0.980431 36.6791 0.621157C34.4763 0.261882 32.2122 0.617615 30.2417 1.63256C28.2713 2.64751 26.706 4.26427 25.7913 6.22927C24.8767 8.19426 24.6645 10.3964 25.1879 12.4902C21.1754 12.2945 17.2506 11.2873 13.6683 9.53396C10.0859 7.7806 6.92629 5.32033 4.39456 2.31297C3.50657 3.80792 3.03997 5.50093 3.04115 7.22365C3.038 8.8235 3.44525 10.3993 4.22663 11.8107C5.00801 13.2221 6.13927 14.4253 7.51971 15.3132C5.91525 15.2712 4.34506 14.8561 2.94272 14.1034V14.222C2.95474 16.4635 3.76952 18.6323 5.24921 20.3614C6.72891 22.0905 8.7827 23.2739 11.0632 23.7112C10.1853 23.9688 9.27391 24.1046 8.35636 24.1145C7.72122 24.1074 7.08766 24.0518 6.46159 23.9485C7.111 25.8767 8.36774 27.5618 10.0569 28.7694C11.7461 29.9769 13.7837 30.6468 15.8863 30.6858C12.3359 33.379 7.95251 34.8489 3.43487 34.8611C2.61233 34.8637 1.79044 34.8161 0.974121 34.7188C5.58662 37.5899 10.9618 39.114 16.4522 39.1075C20.241 39.1455 23.9997 38.4552 27.5086 37.077C31.0176 35.6988 34.2066 33.6604 36.8892 31.0808C39.5719 28.5012 41.6945 25.4321 43.133 22.0527C44.5716 18.6734 45.2972 15.0516 45.2676 11.3989C45.2676 10.9956 45.2676 10.5686 45.2676 10.1416C47.1985 8.75334 48.8639 7.05148 50.1891 5.1123Z" fill="black"/>
</svg>
