<svg width="23" height="24" viewBox="0 0 23 24" fill="none" xmlns="http://www.w3.org/2000/svg">
<g clip-path="url(#clip0_18_498)">
<path d="M22.9883 12.2245C22.9883 11.2413 22.91 10.5237 22.7407 9.77963H11.7295V14.2176H18.1928C18.0626 15.3205 17.3589 16.9815 15.7951 18.0976L15.7732 18.2461L19.2547 20.9963L19.496 21.0209C21.7112 18.9347 22.9883 15.8653 22.9883 12.2245Z" fill="#4285F4"/>
<path d="M11.7289 23.9176C14.8954 23.9176 17.5537 22.8545 19.4954 21.0209L15.7945 18.0976C14.8042 18.8018 13.475 19.2934 11.7289 19.2934C8.62754 19.2934 5.9953 17.2074 5.05698 14.324L4.91945 14.3359L1.2993 17.1927L1.25195 17.3269C3.18052 21.2334 7.14195 23.9176 11.7289 23.9176Z" fill="#34A853"/>
<path d="M5.05695 14.324C4.80937 13.5799 4.66608 12.7826 4.66608 11.9588C4.66608 11.1349 4.80937 10.3377 5.04393 9.59359L5.03737 9.43511L1.37185 6.5324L1.25192 6.59056C0.457066 8.21166 0.000976562 10.0321 0.000976562 11.9588C0.000976562 13.8855 0.457066 15.7058 1.25192 17.3269L5.05695 14.324Z" fill="#FBBC05"/>
<path d="M11.7289 4.62403C13.9311 4.62403 15.4166 5.59402 16.2637 6.40461L19.5735 3.10928C17.5407 1.1826 14.8954 2.38419e-07 11.7289 2.38419e-07C7.14195 2.38419e-07 3.18052 2.68406 1.25195 6.59056L5.04396 9.59359C5.9953 6.7102 8.62754 4.62403 11.7289 4.62403Z" fill="#EB4335"/>
</g>
<defs>
<clipPath id="clip0_18_498">
<rect width="23" height="24" fill="white"/>
</clipPath>
</defs>
</svg>
