<svg width="40" height="40" viewBox="0 0 40 40" fill="none" xmlns="http://www.w3.org/2000/svg">
<path d="M30.6701 7.16684C30.1956 7.16684 29.7318 7.30276 29.3372 7.5574C28.9426 7.81205 28.6351 8.17398 28.4535 8.59744C28.2719 9.0209 28.2244 9.48686 28.317 9.9364C28.4096 10.3859 28.6381 10.7989 28.9736 11.123C29.3092 11.4471 29.7367 11.6678 30.2021 11.7572C30.6675 11.8466 31.1499 11.8007 31.5883 11.6253C32.0267 11.4499 32.4014 11.1529 32.665 10.7718C32.9287 10.3907 33.0694 9.94264 33.0694 9.48429C33.0694 8.86966 32.8166 8.28021 32.3666 7.8456C31.9167 7.411 31.3065 7.16684 30.6701 7.16684ZM39.8672 11.8404C39.8283 10.238 39.5176 8.65272 38.9475 7.14753C38.4391 5.85967 37.6479 4.6935 36.6282 3.72929C35.6382 2.7394 34.428 1.97996 33.0894 1.5084C31.5352 0.940939 29.8921 0.633972 28.2309 0.600736C26.1116 0.484863 25.4318 0.484863 19.9936 0.484863C14.5553 0.484863 13.8755 0.484863 11.7562 0.600736C10.0951 0.633972 8.45197 0.940939 6.89778 1.5084C5.56156 1.98473 4.35247 2.74353 3.35892 3.72929C2.3341 4.68558 1.54786 5.85447 1.05966 7.14753C0.47217 8.64874 0.15437 10.2358 0.119961 11.8404C-1.14587e-07 13.8874 0 14.5441 0 19.7969C0 25.0498 -1.14587e-07 25.7064 0.119961 27.7535C0.15437 29.358 0.47217 30.9451 1.05966 32.4463C1.54786 33.7394 2.3341 34.9083 3.35892 35.8646C4.35247 36.8503 5.56156 37.6091 6.89778 38.0855C8.45197 38.6529 10.0951 38.9599 11.7562 38.9931C13.8755 39.109 14.5553 39.109 19.9936 39.109C25.4318 39.109 26.1116 39.109 28.2309 38.9931C29.8921 38.9599 31.5352 38.6529 33.0894 38.0855C34.428 37.6139 35.6382 36.8545 36.6282 35.8646C37.6524 34.904 38.4443 33.7368 38.9475 32.4463C39.5176 30.9411 39.8283 29.3558 39.8672 27.7535C39.8672 25.7064 39.9871 25.0498 39.9871 19.7969C39.9871 14.5441 39.9871 13.8874 39.8672 11.8404ZM36.2683 27.5218C36.2538 28.7476 36.0239 29.9622 35.5886 31.1138C35.2693 31.9543 34.7566 32.7137 34.089 33.3347C33.4405 33.973 32.656 34.4672 31.7898 34.7831C30.5976 35.2036 29.3401 35.4257 28.071 35.4397C26.0716 35.5363 25.3319 35.5556 20.0735 35.5556C14.8152 35.5556 14.0755 35.5556 12.0761 35.4397C10.7583 35.4635 9.44615 35.2675 8.19736 34.8603C7.36919 34.5283 6.62058 34.0353 5.99807 33.4119C5.33446 32.7915 4.82813 32.0315 4.51855 31.1911C4.03042 30.023 3.75968 28.7808 3.7188 27.5218C3.7188 25.5906 3.59884 24.876 3.59884 19.7969C3.59884 14.7179 3.59884 14.0033 3.7188 12.0721C3.72777 10.8189 3.96463 9.57688 4.41858 8.40281C4.77056 7.58767 5.31082 6.86105 5.99807 6.27848C6.6055 5.61447 7.35621 5.08711 8.19736 4.73352C9.41607 4.30874 10.7006 4.08672 11.9961 4.07691C13.9955 4.07691 14.7353 3.96104 19.9936 3.96104C25.2519 3.96104 25.9916 3.96104 27.991 4.07691C29.2601 4.09097 30.5176 4.31299 31.7098 4.73352C32.6184 5.05922 33.4338 5.58875 34.089 6.27848C34.7442 6.87171 35.2562 7.59698 35.5886 8.40281C36.0329 9.57879 36.2629 10.8203 36.2683 12.0721C36.3683 14.0033 36.3883 14.7179 36.3883 19.7969C36.3883 24.876 36.3683 25.5906 36.2683 27.5218ZM19.9936 9.88984C17.9658 9.89366 15.9848 10.4779 14.3007 11.5689C12.6166 12.6598 11.3051 14.2084 10.5319 16.019C9.75864 17.8296 9.55837 19.821 9.95639 21.7415C10.3544 23.662 11.3328 25.4255 12.768 26.8091C14.2033 28.1927 16.0309 29.1343 18.0199 29.5151C20.009 29.8958 22.0702 29.6984 23.9432 28.948C25.8162 28.1976 27.4169 26.9278 28.5431 25.299C29.6692 23.6702 30.2703 21.7555 30.2703 19.7969C30.2729 18.4936 30.0088 17.2026 29.493 15.9982C28.9772 14.7938 28.22 13.6997 27.265 12.779C26.3099 11.8583 25.1758 11.1291 23.9279 10.6332C22.68 10.1374 21.3429 9.88475 19.9936 9.88984ZM19.9936 26.2279C18.6768 26.2279 17.3895 25.8507 16.2947 25.144C15.1998 24.4374 14.3464 23.433 13.8425 22.2579C13.3386 21.0828 13.2067 19.7898 13.4636 18.5423C13.7205 17.2948 14.3546 16.149 15.2858 15.2496C16.2169 14.3502 17.4032 13.7377 18.6947 13.4896C19.9862 13.2414 21.3249 13.3688 22.5414 13.8555C23.758 14.3423 24.7978 15.1665 25.5294 16.2241C26.261 17.2817 26.6514 18.525 26.6514 19.7969C26.6514 20.6415 26.4792 21.4777 26.1446 22.2579C25.81 23.0382 25.3196 23.7471 24.7014 24.3443C24.0832 24.9414 23.3492 25.4151 22.5414 25.7383C21.7337 26.0615 20.8679 26.2279 19.9936 26.2279Z" fill="black"/>
</svg>
