<svg width="34" height="35" viewBox="0 0 34 35" fill="none" xmlns="http://www.w3.org/2000/svg">
<path d="M33.4414 31.6755L27.0213 25.1071C29.0927 22.3993 30.2167 19.0554 30.2125 15.613C30.2125 12.5473 29.3265 9.55042 27.6666 7.00136C26.0067 4.4523 23.6475 2.46555 20.8872 1.29235C18.1269 0.119143 15.0895 -0.18782 12.1592 0.410273C9.22884 1.00837 6.53717 2.48465 4.42452 4.65245C2.31188 6.82025 0.873147 9.58219 0.290269 12.589C-0.292609 15.5958 0.00654525 18.7125 1.1499 21.5448C2.29326 24.3772 4.22946 26.7981 6.71367 28.5013C9.19788 30.2045 12.1185 31.1136 15.1062 31.1136C18.4611 31.1179 21.7199 29.9646 24.3588 27.8391L30.7601 34.4269C30.9356 34.6085 31.1445 34.7526 31.3746 34.851C31.6047 34.9493 31.8515 35 32.1008 35C32.35 35 32.5969 34.9493 32.827 34.851C33.0571 34.7526 33.2659 34.6085 33.4414 34.4269C33.6184 34.2467 33.7589 34.0324 33.8548 33.7963C33.9506 33.5602 34 33.307 34 33.0512C34 32.7954 33.9506 32.5421 33.8548 32.306C33.7589 32.0699 33.6184 31.8556 33.4414 31.6755ZM3.77657 15.613C3.77657 13.3137 4.44104 11.0661 5.68596 9.15427C6.93088 7.24248 8.70034 5.75242 10.7706 4.87251C12.8408 3.99261 15.1188 3.76239 17.3166 4.21096C19.5143 4.65953 21.5331 5.76675 23.1175 7.39259C24.702 9.01844 25.7811 11.0899 26.2182 13.345C26.6554 15.6001 26.431 17.9376 25.5735 20.0619C24.716 22.1862 23.2638 24.0018 21.4007 25.2792C19.5375 26.5566 17.347 27.2385 15.1062 27.2385C12.1014 27.2385 9.21968 26.0136 7.09495 23.8335C4.97023 21.6533 3.77657 18.6963 3.77657 15.613Z" fill="black"/>
</svg>
