<svg width="50" height="50" viewBox="0 0 50 50" fill="none" xmlns="http://www.w3.org/2000/svg">
<path d="M37.3333 13.7917C37.1219 13.2826 36.7174 12.8781 36.2083 12.6667C35.9579 12.5599 35.6889 12.5033 35.4167 12.5H14.5833C14.0308 12.5 13.5009 12.7195 13.1102 13.1102C12.7195 13.5009 12.5 14.0308 12.5 14.5833C12.5 15.1359 12.7195 15.6658 13.1102 16.0565C13.5009 16.4472 14.0308 16.6667 14.5833 16.6667H30.3958L13.1042 33.9375C12.9089 34.1312 12.7539 34.3616 12.6481 34.6155C12.5424 34.8693 12.4879 35.1416 12.4879 35.4167C12.4879 35.6917 12.5424 35.964 12.6481 36.2179C12.7539 36.4717 12.9089 36.7022 13.1042 36.8958C13.2978 37.0911 13.5283 37.2461 13.7821 37.3519C14.036 37.4576 14.3083 37.5121 14.5833 37.5121C14.8584 37.5121 15.1307 37.4576 15.3845 37.3519C15.6384 37.2461 15.8688 37.0911 16.0625 36.8958L33.3333 19.6042V35.4167C33.3333 35.9692 33.5528 36.4991 33.9435 36.8898C34.3342 37.2805 34.8641 37.5 35.4167 37.5C35.9692 37.5 36.4991 37.2805 36.8898 36.8898C37.2805 36.4991 37.5 35.9692 37.5 35.4167V14.5833C37.4967 14.3111 37.4401 14.0421 37.3333 13.7917Z" fill="black"/>
</svg>
