<svg width="35" height="35" viewBox="0 0 35 35" fill="none" xmlns="http://www.w3.org/2000/svg">
<path d="M17.4487 19.7031C22.632 19.7031 26.7889 15.3019 26.7889 9.93462C26.7889 4.5673 22.632 0.112427 17.4487 0.112427C12.2654 0.112427 8.10851 4.51363 8.10851 9.88095C8.10851 15.2483 12.2654 19.7031 17.4487 19.7031ZM17.4487 2.68874C21.2463 2.68874 24.3255 5.90913 24.3255 9.88095C24.3255 13.8528 21.2463 17.0732 17.4487 17.0732C13.651 17.0732 10.5718 13.9064 10.5718 9.93462C10.5718 5.9628 13.651 2.68874 17.4487 2.68874ZM1.23167 35H33.7683C34.4355 35 35 34.4096 35 33.7118C35 26.949 29.7141 21.4207 23.2478 21.4207H11.7522C5.28592 21.4207 0 26.949 0 33.7118C0 34.4096 0.564516 35 1.23167 35ZM11.7522 23.997H23.2478C27.9692 23.997 31.8182 27.6468 32.434 32.4237H2.56598C3.18182 27.6468 7.03079 23.997 11.7522 23.997Z" fill="black"/>
</svg>
