<svg width="35" height="33" viewBox="0 0 35 33" fill="none" xmlns="http://www.w3.org/2000/svg">
<path d="M9.625 0.13855C12.6875 0.13855 15.5748 1.57014 17.5 3.8964C19.4253 1.57014 22.3125 0.13855 25.375 0.13855C30.8002 0.13855 35 4.43288 35 9.98018C35 16.7795 29.0502 22.2377 20.0378 30.6471L17.5 32.9739L14.9622 30.6471C5.94991 22.2376 0 16.7794 0 9.98018C0 4.43288 4.19983 0.13855 9.625 0.13855ZM16.42 28.2929L16.775 28.6241L17.5 29.2887L18.2249 28.6242L18.5794 28.2933C22.8213 24.3358 26.4848 20.9179 28.9066 17.8618C31.2588 14.8935 32.3077 12.4628 32.3077 9.98018C32.3077 8.02502 31.5991 6.22369 30.3124 4.90814C29.0301 3.59695 27.2766 2.87483 25.375 2.87483C23.1762 2.87483 21.0025 3.91521 19.5605 5.65771L17.5 8.14738L15.4396 5.65771C13.9975 3.91521 11.8239 2.87483 9.625 2.87483C7.7233 2.87483 5.96994 3.59695 4.68748 4.90806C3.40089 6.22369 2.69231 8.02493 2.69231 9.98018C2.69231 12.4628 3.74121 14.8934 6.0932 17.8616C8.51493 20.9177 12.1782 24.3354 16.42 28.2929Z" fill="black"/>
</svg>
